<svg width="45" height="41" viewBox="0 0 45 41" fill="none" xmlns="http://www.w3.org/2000/svg">
<g id="&#240;&#159;&#166;&#134; icon &#34;menu 1&#34;">
<path id="Vector" d="M31.9434 0H13.079C4.88493 0 0 4.35012 0 11.6471V28.4261C0 35.7431 4.88493 40.0933 13.079 40.0933H31.9209C40.115 40.0933 44.9999 35.7431 44.9999 28.4462V11.6471C45.0224 4.35012 40.1375 0 31.9434 0ZM33.7668 30.5711H11.2556C10.3326 30.5711 9.56727 29.8895 9.56727 29.0676C9.56727 28.2457 10.3326 27.5641 11.2556 27.5641H33.7668C34.6898 27.5641 35.4552 28.2457 35.4552 29.0676C35.4552 29.8895 34.6898 30.5711 33.7668 30.5711ZM33.7668 21.5501H11.2556C10.3326 21.5501 9.56727 20.8685 9.56727 20.0466C9.56727 19.2247 10.3326 18.5431 11.2556 18.5431H33.7668C34.6898 18.5431 35.4552 19.2247 35.4552 20.0466C35.4552 20.8685 34.6898 21.5501 33.7668 21.5501ZM33.7668 12.5291H11.2556C10.3326 12.5291 9.56727 11.8476 9.56727 11.0256C9.56727 10.2037 10.3326 9.52215 11.2556 9.52215H33.7668C34.6898 9.52215 35.4552 10.2037 35.4552 11.0256C35.4552 11.8476 34.6898 12.5291 33.7668 12.5291Z" fill="white"/>
</g>
</svg>
